<svg width="160" height="100" viewBox="0 0 160 100" fill="none" xmlns="http://www.w3.org/2000/svg">
<g clip-path="url(#clip0_614_12136)">
<mask id="mask0_614_12136" style="mask-type:luminance" maskUnits="userSpaceOnUse" x="17" y="27" width="126" height="47">
<path d="M143 27H17V74H143V27Z" fill="white"/>
</mask>
<g mask="url(#mask0_614_12136)">
<mask id="mask1_614_12136" style="mask-type:luminance" maskUnits="userSpaceOnUse" x="63" y="37" width="80" height="27">
<path d="M142.999 37.1685H63.2852V63.0452H142.999V37.1685Z" fill="white"/>
</mask>
<g mask="url(#mask1_614_12136)">
<path d="M77.2689 50.1563C77.2689 51.5444 76.7807 52.7342 75.902 53.7256C75.0233 54.717 73.6563 55.1135 72.2893 55.1135C70.9225 55.1135 69.7508 54.6178 68.872 53.7256C67.9934 52.7342 67.6028 51.5444 67.6028 50.1563C67.6028 48.7683 68.0909 47.5785 68.872 46.6863C69.7508 45.6949 70.9225 45.1991 72.2893 45.1991C73.6563 45.1991 75.0233 45.6949 75.902 46.6863C76.7807 47.5785 77.2689 48.6692 77.2689 50.1563ZM77.1713 43.5137C75.7067 42.2247 73.9492 41.6299 71.8988 41.6299C69.6531 41.6299 67.4075 42.423 65.9429 44.0094C64.3808 45.5956 63.6973 47.6777 63.6973 50.0572C63.6973 52.5358 64.4783 54.6178 65.9429 56.2042C67.4075 57.8897 69.5555 58.6828 71.8988 58.6828C74.0469 58.6828 75.5114 58.088 77.1713 56.799V58.2862H80.7839V41.9273H77.1713V43.5137Z" fill="#222222"/>
<path fill-rule="evenodd" clip-rule="evenodd" d="M84.2987 58.4847C86.2514 58.4847 87.716 57.6916 88.6924 56.0061C89.0828 55.4113 89.4734 54.4198 89.6687 53.8249C89.9616 53.1309 90.1569 51.7429 90.3522 51.148C90.4498 50.8506 90.5475 50.3549 90.6451 49.6608L90.8404 48.2728C90.8404 47.9753 90.938 47.4796 91.0357 46.6865L91.2309 45.2984H94.8435V58.2864H98.6514V41.9275H87.9113L87.716 43.2165C87.4231 46.2899 87.0325 48.7685 86.7396 50.4539C86.4466 52.1394 86.0561 53.4283 85.3726 54.3206C84.7869 55.1137 84.0057 55.5104 83.0293 55.5104L83.2246 58.3856C83.7128 58.4847 84.0057 58.4847 84.2987 58.4847Z" fill="#222222"/>
<path d="M133.021 45.0009C136.731 45.0009 138.879 46.9838 138.879 50.1564C138.879 53.3291 136.634 55.3119 133.021 55.3119V45.0009ZM123.55 50.1564C123.55 46.9838 125.698 45.0009 129.408 45.0009V55.3119C125.698 55.2128 123.55 53.3291 123.55 50.1564ZM142.59 50.1564C142.59 47.5786 141.711 45.4966 139.953 44.0095C138.196 42.4231 135.853 41.63 133.021 41.5309V37.1685H129.408V41.5309C126.577 41.63 124.136 42.4231 122.476 44.0095C120.719 45.4966 119.84 47.5786 119.84 50.1564C119.84 52.7342 120.719 54.7171 122.476 56.2043C124.234 57.6914 126.577 58.5838 129.408 58.6829V63.0453H133.021V58.6829C135.95 58.5838 138.293 57.7905 139.953 56.3034C141.711 54.7171 142.59 52.635 142.59 50.1564Z" fill="#222222"/>
<path d="M104.314 58.2864L113.394 48.0744V58.2864H117.105V41.9275H114.664L105.681 52.2386V41.9275H101.873V58.2864H104.314Z" fill="#222222"/>
</g>
<mask id="mask2_614_12136" style="mask-type:luminance" maskUnits="userSpaceOnUse" x="17" y="27" width="39" height="47">
<path d="M55.5714 27H17V74H55.5714V27Z" fill="white"/>
</mask>
<g mask="url(#mask2_614_12136)">
<path fill-rule="evenodd" clip-rule="evenodd" d="M37.9589 73.8957C34.8345 73.5981 31.9052 72.7059 29.1714 71.2188C23.9966 68.3435 19.9934 63.4854 18.1383 57.3384C16.3808 51.1914 17.2595 44.8462 20.091 39.6906C23.8013 32.7504 30.9289 27.9915 38.5447 27H38.74L40.6927 31.9573C40.5951 31.9573 40.4974 31.9573 40.4974 31.9573C34.0533 32.3538 27.6092 36.2205 24.4848 42.07C22.2391 46.135 21.6533 51.0922 23.0202 55.8512C24.3871 60.7093 27.6092 64.4769 31.6124 66.6581C33.7604 67.8478 36.1037 68.5417 38.5447 68.8393C43.9148 69.335 48.8944 67.5503 52.7999 64.3777C52.9952 64.1793 53.1905 64.0803 53.3857 63.8819L55.3385 68.8393C50.5543 72.5076 44.403 74.4905 37.9589 73.8957ZM43.2314 38.6H37.0801L28.9761 58.9247H34.2486L40.2045 43.1607L46.1605 58.9247H51.4329L43.2314 38.6Z" fill="#39B980"/>
</g>
</g>
</g>
<defs>
<clipPath id="clip0_614_12136">
<rect width="126" height="47" fill="white" transform="translate(17 27)"/>
</clipPath>
</defs>
</svg>
