<svg width="120" height="120" viewBox="0 0 120 120" fill="none" xmlns="http://www.w3.org/2000/svg">
<g clip-path="url(#clip0_202_6331)">
<path d="M110 89.091V30.9092L60 60.0002L110 89.091Z" fill="#7F3A86"/>
<path fill-rule="evenodd" clip-rule="evenodd" d="M90.1155 51.3418V54.2202H84.3431V51.3418H81.4575V54.2202H78.5713V57.1138H81.4575V62.8707H78.5713V65.7718H81.4575V68.6578H84.3431L84.3433 65.7718H90.1155V68.6578H93.0011V65.7718H95.8873V62.8857H93.0011V57.1138H95.8873V54.2202H93.0011V51.3418H90.1155ZM90.1155 62.8857V57.1138H84.3431V62.8707L90.1155 62.8857Z" fill="white"/>
<path d="M109.545 110V88.6364L59.9976 60L10 87.0562V110H109.545Z" fill="#662579"/>
<path d="M110 30.9091V10L10 10.0002V87.0562L59.9998 60.0001L110 30.9091Z" fill="#9A5196"/>
<path d="M60.4364 90.909C43.1524 90.909 29.0908 77.0432 29.0908 59.9999C29.0908 42.9566 43.1524 29.0908 60.4364 29.0908C71.3832 29.0908 81.6061 34.7923 87.2665 44.0113L73.8427 51.9885C71.0066 47.3889 65.901 44.5454 60.4364 44.5454C51.7942 44.5454 44.7636 51.4781 44.7636 59.9999C44.7636 68.5214 51.7942 75.4545 60.4364 75.4545C65.8864 75.4545 70.9789 72.6267 73.8199 68.0487L87.2723 75.9795C81.6128 85.204 71.3869 90.909 60.4364 90.909Z" fill="white"/>
</g>
<defs>
<clipPath id="clip0_202_6331">
<rect x="10" y="10" width="100" height="100" rx="50" fill="white"/>
</clipPath>
</defs>
</svg>
