<svg width="120" height="120" viewBox="0 0 120 120" fill="none" xmlns="http://www.w3.org/2000/svg">
<g clip-path="url(#clip0_1414_12263)">
<path d="M60 110C87.6142 110 110 87.6142 110 60C110 32.3858 87.6142 10 60 10C32.3858 10 10 32.3858 10 60C10 87.6142 32.3858 110 60 110Z" fill="#5C2D91"/>
<path d="M95.3553 95.3553C90.7124 99.9983 85.2004 103.681 79.1342 106.194C73.0679 108.707 66.5661 110 60 110C53.4339 110 46.9321 108.707 40.8658 106.194C34.7995 103.681 29.2876 99.9983 24.6447 95.3553C20.0017 90.7124 16.3188 85.2004 13.806 79.1342C11.2933 73.0679 10 66.5661 10 60C10 53.4339 11.2933 46.9321 13.806 40.8658C16.3188 34.7995 20.0017 29.2876 24.6447 24.6446L60 60L95.3553 95.3553Z" fill="white" fill-opacity="0.1"/>
<path d="M21.5624 74.4533C21.2708 74.4579 20.9813 74.4019 20.7124 74.289C20.4434 74.176 20.2009 74.0085 19.9999 73.797C19.7935 73.5931 19.6304 73.3496 19.5203 73.0811C19.4102 72.8126 19.3555 72.5247 19.3593 72.2345C19.3572 71.9446 19.4128 71.6572 19.5228 71.389C19.6328 71.1207 19.795 70.877 19.9999 70.672C20.1989 70.457 20.4408 70.286 20.7099 70.1703C20.979 70.0546 21.2695 69.9966 21.5624 70.0002C21.855 69.9994 22.1445 70.0587 22.4133 70.1742C22.682 70.2898 22.9242 70.4592 23.1249 70.672C23.3335 70.8752 23.499 71.1182 23.6118 71.3866C23.7245 71.655 23.7821 71.9434 23.7812 72.2345C23.7839 72.5259 23.7271 72.8148 23.6143 73.0835C23.5014 73.3522 23.3349 73.595 23.1249 73.797C22.9223 74.0063 22.6794 74.1723 22.4109 74.2851C22.1423 74.3979 21.8537 74.4551 21.5624 74.4533Z" fill="white"/>
<path d="M52.6094 74.0625H48.5156L33.875 51.3437C33.5109 50.7836 33.2072 50.1866 32.9687 49.5625H32.8437C32.9829 50.8596 33.0351 52.1646 33 53.4687V74.0625H29.6719V45.5781H34L48.25 67.8906C48.8437 68.8177 49.2292 69.4531 49.4062 69.7969H49.4844C49.3196 68.4074 49.2517 67.0082 49.2812 65.6094V45.5781H52.6094V74.0625Z" fill="white"/>
<path d="M75.1406 74.0625H60V45.5781H74.4375V48.5938H63.4063V58.0625H73.6875V61.0625H63.4063V70.9375H75.1563L75.1406 74.0625Z" fill="white"/>
<path d="M97.5 48.5938H89.2187V74.0625H85.8906V48.5938H77.7031V45.5781H97.5V48.5938Z" fill="white"/>
</g>
<defs>
<clipPath id="clip0_1414_12263">
<rect width="100" height="100" fill="white" transform="translate(10 10)"/>
</clipPath>
</defs>
</svg>
