<svg width="32" height="32" viewBox="0 0 32 32" fill="none" xmlns="http://www.w3.org/2000/svg">
<path d="M29.3346 11.477V22.333C29.3347 23.4399 28.9112 24.5048 28.1511 25.3093C27.3909 26.1139 26.3517 26.597 25.2466 26.6597L25.0013 26.6663H7.0013C5.89445 26.6664 4.82953 26.2429 4.02499 25.4828C3.22046 24.7226 2.7373 23.6834 2.67464 22.5783L2.66797 22.333V11.477L15.5373 18.2183C15.6805 18.2933 15.8397 18.3325 16.0013 18.3325C16.1629 18.3325 16.3221 18.2933 16.4653 18.2183L29.3346 11.477ZM7.0013 5.33301H25.0013C26.0754 5.33288 27.1113 5.73167 27.908 6.45203C28.7048 7.17239 29.2056 8.16298 29.3133 9.23167L16.0013 16.205L2.6893 9.23167C2.79267 8.20542 3.2587 7.2497 4.00364 6.53629C4.74857 5.82289 5.72354 5.39859 6.7533 5.33967L7.0013 5.33301H25.0013H7.0013Z" fill="#F5F5F5"/>
</svg>
