<svg width="120" height="120" viewBox="0 0 120 120" fill="none" xmlns="http://www.w3.org/2000/svg">
<path d="M17.9228 64.2551L13.9319 14.3685C13.6992 11.4591 15.9974 8.96973 18.916 8.96973H65.084C68.0026 8.96973 70.3008 11.4591 70.0681 14.3685L66.0772 64.2551C65.8799 66.7209 64.1897 68.8128 61.8204 69.5236L43.7241 74.9525C42.5995 75.2899 41.4005 75.2899 40.2759 74.9525L22.1796 69.5236C19.8103 68.8128 18.1201 66.7209 17.9228 64.2551Z" fill="#E44D26"/>
<path d="M63.5599 13.7197H44C42.8954 13.7197 42 14.6152 42 15.7197V69.1868C42 70.5361 43.3087 71.4983 44.5966 71.0958L59.7256 66.368C60.4972 66.1269 61.0477 65.4451 61.1209 64.6401L65.5517 15.9008C65.6582 14.7296 64.736 13.7197 63.5599 13.7197Z" fill="#F16529"/>
<path d="M26.5625 44.6133L24.1875 22.0508H61L59.8125 29.1758H31.3125L32.5 37.4883H58.625L56.25 60.0508L42 64.8008L27.75 60.0508L26.5625 48.1758H33.6875L34.875 54.1133L42 56.4883L49.125 54.1133L50.3125 44.6133H26.5625Z" fill="white"/>
<path d="M28.4989 14.084H27.3649V16.016H25.1389V14.084H24.0049V18.984H25.1389V16.975H27.3649V18.984H28.4989V14.084Z" fill="white"/>
<path d="M30.6732 15.008V18.984H31.8072V15.008H33.3752V14.084H29.1052V15.008H30.6732Z" fill="white"/>
<path d="M33.9854 14.084V18.984H35.0494V16.1063L36.4844 18.466H36.9954L38.4381 16.043L38.4444 18.984H39.5084L39.4944 14.084H38.5634L36.7587 17.1266L34.9234 14.084H33.9854Z" fill="white"/>
<path d="M40.6709 14.084V18.984H44.2619V18.06H41.8049V14.084H40.6709Z" fill="white"/>
<path d="M53.9228 101.41L49.9319 51.5237C49.6992 48.6144 51.9974 46.125 54.916 46.125H101.084C104.003 46.125 106.301 48.6144 106.068 51.5237L102.077 101.41C101.88 103.876 100.19 105.968 97.8204 106.679L79.7241 112.108C78.5995 112.445 77.4005 112.445 76.2759 112.108L58.1796 106.679C55.8103 105.968 54.1201 103.876 53.9228 101.41Z" fill="#1172B8"/>
<path d="M99.5599 50.875H80C78.8954 50.875 78 51.7704 78 52.875V106.342C78 107.691 79.3087 108.654 80.5966 108.251L95.7256 103.523C96.4972 103.282 97.0477 102.6 97.1209 101.795L101.552 53.0561C101.658 51.8848 100.736 50.875 99.5599 50.875Z" fill="#33AADD"/>
<path d="M86.3125 80.5625H62.5625L61.375 72.25L80.375 66.3125H61.375L60.1875 59.1875H97L95.8125 67.5L80.375 73.4375H94.625L92.25 96L78 100.75L63.75 96L62.5625 84.125H69.6875L70.875 90.0625L78 92.4375L85.125 90.0625L86.3125 80.5625Z" fill="white"/>
<path d="M62.6165 56.8877C62.9898 57.0264 63.3925 57.0957 63.8245 57.0957C64.3151 57.0957 64.7551 57.0104 65.1445 56.8397C65.5391 56.669 65.8698 56.421 66.1365 56.0957L65.3045 55.3277C65.1125 55.5517 64.8991 55.7197 64.6645 55.8317C64.4298 55.9384 64.1738 55.9917 63.8965 55.9917C63.6351 55.9917 63.3951 55.949 63.1765 55.8637C62.9578 55.7784 62.7685 55.6557 62.6085 55.4957C62.4485 55.3357 62.3231 55.1464 62.2325 54.9277C62.1471 54.709 62.1045 54.4664 62.1045 54.1997C62.1045 53.933 62.1471 53.6904 62.2325 53.4717C62.3231 53.253 62.4485 53.0637 62.6085 52.9037C62.7685 52.7437 62.9578 52.621 63.1765 52.5357C63.3951 52.4504 63.6351 52.4077 63.8965 52.4077C64.1738 52.4077 64.4298 52.4637 64.6645 52.5757C64.8991 52.6824 65.1125 52.845 65.3045 53.0637L66.1365 52.2957C65.8698 51.9704 65.5391 51.725 65.1445 51.5597C64.7551 51.389 64.3178 51.3037 63.8325 51.3037C63.3951 51.3037 62.9925 51.3757 62.6245 51.5197C62.2565 51.6584 61.9338 51.8584 61.6565 52.1197C61.3845 52.381 61.1711 52.6877 61.0165 53.0397C60.8671 53.3917 60.7925 53.7784 60.7925 54.1997C60.7925 54.621 60.8671 55.0077 61.0165 55.3597C61.1711 55.7117 61.3845 56.0184 61.6565 56.2797C61.9285 56.541 62.2485 56.7437 62.6165 56.8877Z" fill="white"/>
<path d="M67.5324 56.9197C67.9431 57.037 68.3724 57.0957 68.8204 57.0957C69.3538 57.0957 69.7938 57.0157 70.1404 56.8557C70.4924 56.6957 70.7564 56.485 70.9324 56.2237C71.1084 55.9624 71.1964 55.6744 71.1964 55.3597C71.1964 55.0664 71.1351 54.8237 71.0124 54.6317C70.8951 54.4397 70.7404 54.285 70.5484 54.1677C70.3564 54.0504 70.1431 53.957 69.9084 53.8877C69.6791 53.8184 69.4471 53.757 69.2124 53.7037C68.9831 53.6504 68.7724 53.597 68.5804 53.5437C68.3884 53.4904 68.2338 53.421 68.1164 53.3357C67.9991 53.245 67.9404 53.1277 67.9404 52.9837C67.9404 52.861 67.9751 52.7544 68.0444 52.6637C68.1138 52.5677 68.2284 52.4904 68.3884 52.4317C68.5484 52.373 68.7538 52.3437 69.0044 52.3437C69.2551 52.3437 69.5111 52.381 69.7724 52.4557C70.0338 52.525 70.2951 52.6344 70.5564 52.7837L70.9564 51.7997C70.6951 51.6344 70.3938 51.5117 70.0524 51.4317C69.7111 51.3464 69.3644 51.3037 69.0124 51.3037C68.4844 51.3037 68.0444 51.3837 67.6924 51.5437C67.3458 51.6984 67.0844 51.909 66.9084 52.1757C66.7378 52.437 66.6524 52.7277 66.6524 53.0477C66.6524 53.3464 66.7111 53.5917 66.8284 53.7837C66.9511 53.9757 67.1084 54.1304 67.3004 54.2477C67.4924 54.365 67.7031 54.461 67.9324 54.5357C68.1671 54.6104 68.3991 54.6744 68.6284 54.7277C68.8631 54.7757 69.0764 54.829 69.2684 54.8877C69.4604 54.941 69.6151 55.013 69.7324 55.1037C69.8498 55.189 69.9084 55.3064 69.9084 55.4557C69.9084 55.573 69.8711 55.677 69.7964 55.7677C69.7218 55.8584 69.6044 55.9304 69.4444 55.9837C69.2898 56.0317 69.0844 56.0557 68.8284 56.0557C68.4924 56.0557 68.1591 56.0024 67.8284 55.8957C67.5031 55.7837 67.2204 55.6424 66.9804 55.4717L66.5404 56.4477C66.7911 56.6397 67.1218 56.797 67.5324 56.9197Z" fill="white"/>
<path d="M72.634 56.9197C73.0446 57.037 73.474 57.0957 73.922 57.0957C74.4553 57.0957 74.8953 57.0157 75.242 56.8557C75.594 56.6957 75.858 56.485 76.034 56.2237C76.21 55.9624 76.298 55.6744 76.298 55.3597C76.298 55.0664 76.2366 54.8237 76.114 54.6317C75.9966 54.4397 75.842 54.285 75.65 54.1677C75.458 54.0504 75.2446 53.957 75.01 53.8877C74.7806 53.8184 74.5486 53.757 74.314 53.7037C74.0846 53.6504 73.874 53.597 73.682 53.5437C73.49 53.4904 73.3353 53.421 73.218 53.3357C73.1006 53.245 73.042 53.1277 73.042 52.9837C73.042 52.861 73.0766 52.7544 73.146 52.6637C73.2153 52.5677 73.33 52.4904 73.49 52.4317C73.65 52.373 73.8553 52.3437 74.106 52.3437C74.3566 52.3437 74.6126 52.381 74.874 52.4557C75.1353 52.525 75.3966 52.6344 75.658 52.7837L76.058 51.7997C75.7966 51.6344 75.4953 51.5117 75.154 51.4317C74.8126 51.3464 74.466 51.3037 74.114 51.3037C73.586 51.3037 73.146 51.3837 72.794 51.5437C72.4473 51.6984 72.186 51.909 72.01 52.1757C71.8393 52.437 71.754 52.7277 71.754 53.0477C71.754 53.3464 71.8126 53.5917 71.93 53.7837C72.0526 53.9757 72.21 54.1304 72.402 54.2477C72.594 54.365 72.8046 54.461 73.034 54.5357C73.2686 54.6104 73.5006 54.6744 73.73 54.7277C73.9646 54.7757 74.178 54.829 74.37 54.8877C74.562 54.941 74.7166 55.013 74.834 55.1037C74.9513 55.189 75.01 55.3064 75.01 55.4557C75.01 55.573 74.9726 55.677 74.898 55.7677C74.8233 55.8584 74.706 55.9304 74.546 55.9837C74.3913 56.0317 74.186 56.0557 73.93 56.0557C73.594 56.0557 73.2606 56.0024 72.93 55.8957C72.6046 55.7837 72.322 55.6424 72.082 55.4717L71.642 56.4477C71.8926 56.6397 72.2233 56.797 72.634 56.9197Z" fill="white"/>
</svg>
