<svg width="36" height="36" viewBox="0 0 36 36" fill="none" xmlns="http://www.w3.org/2000/svg">
<path d="M17.9961 13.1227C15.3106 13.1227 13.1191 15.3143 13.1191 17.9997C13.1191 20.6852 15.3106 22.8767 17.9961 22.8767C20.6815 22.8767 22.8731 20.6852 22.8731 17.9997C22.8731 15.3143 20.6815 13.1227 17.9961 13.1227ZM32.6234 17.9997C32.6234 15.9802 32.6417 13.9789 32.5282 11.9629C32.4148 9.62141 31.8807 7.54329 30.1684 5.83104C28.4525 4.11514 26.378 3.58463 24.0365 3.47121C22.0169 3.35779 20.0156 3.37609 17.9997 3.37609C15.9801 3.37609 13.9789 3.35779 11.9629 3.47121C9.62141 3.58463 7.54329 4.11879 5.83104 5.83104C4.11514 7.54695 3.58463 9.62141 3.47121 11.9629C3.35779 13.9825 3.37609 15.9838 3.37609 17.9997C3.37609 20.0156 3.35779 22.0206 3.47121 24.0365C3.58463 26.378 4.1188 28.4562 5.83104 30.1684C7.54695 31.8843 9.62141 32.4148 11.9629 32.5282C13.9825 32.6417 15.9838 32.6234 17.9997 32.6234C20.0193 32.6234 22.0206 32.6417 24.0365 32.5282C26.378 32.4148 28.4562 31.8807 30.1684 30.1684C31.8843 28.4525 32.4148 26.378 32.5282 24.0365C32.6453 22.0206 32.6234 20.0193 32.6234 17.9997ZM17.9961 25.5036C13.8435 25.5036 10.4922 22.1523 10.4922 17.9997C10.4922 13.8472 13.8435 10.4958 17.9961 10.4958C22.1486 10.4958 25.5 13.8472 25.5 17.9997C25.5 22.1523 22.1486 25.5036 17.9961 25.5036ZM25.8073 11.941C24.8378 11.941 24.0548 11.158 24.0548 10.1885C24.0548 9.21896 24.8378 8.43601 25.8073 8.43601C26.7768 8.43601 27.5598 9.21896 27.5598 10.1885C27.5601 10.4187 27.5149 10.6467 27.427 10.8595C27.339 11.0722 27.2099 11.2656 27.0471 11.4283C26.8843 11.5911 26.691 11.7202 26.4783 11.8082C26.2655 11.8962 26.0375 11.9413 25.8073 11.941Z" fill="#F3F4F6"/>
</svg>
