<svg width="120" height="120" viewBox="0 0 120 120" fill="none" xmlns="http://www.w3.org/2000/svg">
<circle cx="60" cy="60" r="50" fill="#FFCA28"/>
<path d="M61.5789 72.8229L68.0891 68.2075C68.5992 69.9249 71.83 74.0035 75.9109 74.0035C79.9919 74.0035 81.8866 71.6154 81.8866 70.0322C81.8866 65.7176 77.7195 64.1964 75.718 63.4657C75.3917 63.3466 75.123 63.2485 74.9393 63.1628C74.8451 63.1188 74.7026 63.0605 74.5196 62.9856C72.2936 62.0744 64.081 58.7126 64.081 48.9678C64.081 38.2343 73.749 37 75.9352 37C77.3656 37 84.2429 37.1878 87.668 44.0841L81.3522 48.8068C79.9676 45.8014 77.6671 44.8086 76.251 44.8086C72.753 44.8086 72.0243 47.5562 72.0243 48.8068C72.0243 52.3162 75.8247 53.8891 79.0337 55.2172C79.8732 55.5647 80.6723 55.8954 81.3522 56.2397C84.8502 58.0107 90 60.9087 90 70.0322C90 74.6018 86.4227 82 77.417 82C65.3198 82 62.1134 74.2182 61.5789 72.8229Z" fill="#333333"/>
<path d="M30 73.7394L36.7853 69.1264C37.317 70.8428 39.3829 74.0076 42.3806 74.0076C45.3783 74.0076 46.9126 70.7087 46.9126 69.1264V38.0151H55.2575V69.1264C55.3925 73.4176 53.1713 82 43.368 82C34.3547 82 30.6076 76.2605 30 73.7394Z" fill="#333333"/>
</svg>
