<svg width="32" height="32" viewBox="0 0 32 32" fill="none" xmlns="http://www.w3.org/2000/svg">
<path fill-rule="evenodd" clip-rule="evenodd" d="M16.3141 28.5109C16.6996 29.1341 16.7014 29.1323 16.7014 29.1323H16.704L16.712 29.127L16.7387 29.1097C16.7442 29.1061 16.7497 29.1026 16.7552 29.0991C16.7642 29.0933 16.7731 29.0875 16.7821 29.0818C16.7979 29.0715 16.8136 29.0613 16.8294 29.051C16.8603 29.0305 16.8912 29.01 16.922 28.9894C17.3847 28.6802 17.8363 28.3548 18.276 28.0137C18.3516 27.9549 18.4269 27.8958 18.5019 27.8362C19.6264 26.9433 20.6788 25.963 21.6494 24.9043C21.9542 24.5708 22.2612 24.2169 22.5651 23.8432C24.6921 21.2275 26.6654 17.6445 26.6654 13.3337C26.6654 12.9554 26.6467 12.5828 26.6101 12.2165C26.0624 6.72285 21.5087 2.66699 15.9987 2.66699C10.1214 2.66699 5.33203 7.28166 5.33203 13.3337C5.33203 18.2603 7.90936 22.2363 10.348 24.9043C11.3837 26.0336 12.5126 27.0737 13.7227 28.0137C14.0883 28.2984 14.4623 28.5723 14.844 28.835C14.9801 28.9298 15.1184 29.0213 15.2587 29.1097L15.2854 29.127L15.2934 29.1323L15.2974 29.1337C15.7254 29.4003 16.2694 29.4003 16.6987 29.1337L16.3618 28.5883C16.3615 28.5877 16.3612 28.5872 16.3608 28.5866L16.3618 28.5883M16.313 28.5092L16.3141 28.5109C16.3137 28.5104 16.3134 28.5098 16.313 28.5092ZM13.1703 10.5052C12.4201 11.2554 11.9987 12.2728 11.9987 13.3337C11.9987 14.3945 12.4201 15.4119 13.1703 16.1621C13.9204 16.9122 14.9378 17.3337 15.9987 17.3337C17.0596 17.3337 18.077 16.9122 18.8271 16.1621C19.5773 15.4119 19.9987 14.3945 19.9987 13.3337C19.9987 12.2728 19.5773 11.2554 18.8271 10.5052C18.077 9.75509 17.0596 9.33366 15.9987 9.33366C14.9378 9.33366 13.9204 9.75509 13.1703 10.5052Z" fill="#F5F5F5"/>
</svg>
