<svg width="120" height="120" viewBox="0 0 120 120" fill="none" xmlns="http://www.w3.org/2000/svg">
<g clip-path="url(#clip0_1435_9874)">
<rect x="10" y="10" width="100" height="100" fill="#004482"/>
<path d="M43.6238 70C35.0088 70 28 63.0467 28 54.5C28 45.9533 35.0088 39 43.6238 39C49.0801 39 54.1756 41.8591 56.997 46.4822L50.306 50.4825C48.8924 48.176 46.3476 46.75 43.6238 46.75C39.3162 46.75 35.8119 50.2266 35.8119 54.5C35.8119 58.7733 39.3162 62.25 43.6238 62.25C46.3403 62.25 48.8786 60.832 50.2946 58.5362L56.9998 62.5133C54.1789 67.1391 49.0819 70 43.6238 70Z" fill="white"/>
<path d="M72.7142 52.5324H68.1425V48H63.5717V52.5324H59V57.0647H63.5717V61.5975H68.1425V57.0647H72.7142V52.5324Z" fill="white"/>
<path d="M90.9999 52.5561H86.4282V48H81.8573V52.5561H77.2856V57.1122H81.8573V61.6687H86.4282V57.1122H90.9999V52.5561Z" fill="white"/>
<path d="M89.7906 84.0698C89.0906 84.0698 88.4606 83.9112 87.9006 83.5938C87.3499 83.2765 86.9159 82.8378 86.5986 82.2778C86.2812 81.7085 86.1226 81.0552 86.1226 80.3178C86.1226 79.5711 86.2812 78.9178 86.5986 78.3578C86.9159 77.7978 87.3499 77.3638 87.9006 77.0558C88.4606 76.7385 89.0906 76.5798 89.7906 76.5798C90.4346 76.5798 91.0086 76.7245 91.5126 77.0138C92.0259 77.3032 92.4319 77.7278 92.7306 78.2878C93.0386 78.8385 93.1926 79.5152 93.1926 80.3178C93.1926 81.1112 93.0432 81.7878 92.7446 82.3478C92.4459 82.9078 92.0399 83.3371 91.5266 83.6358C91.0226 83.9251 90.4439 84.0698 89.7906 84.0698ZM89.8606 83.1878C90.3832 83.1878 90.8499 83.0712 91.2606 82.8378C91.6806 82.5952 92.0072 82.2592 92.2406 81.8298C92.4832 81.3912 92.6046 80.8872 92.6046 80.3178C92.6046 79.7391 92.4832 79.2352 92.2406 78.8058C92.0072 78.3765 91.6806 78.0451 91.2606 77.8118C90.8499 77.5691 90.3832 77.4478 89.8606 77.4478C89.3472 77.4478 88.8852 77.5691 88.4746 77.8118C88.0639 78.0451 87.7372 78.3765 87.4946 78.8058C87.2519 79.2352 87.1306 79.7391 87.1306 80.3178C87.1306 80.8872 87.2519 81.3912 87.4946 81.8298C87.7372 82.2592 88.0639 82.5952 88.4746 82.8378C88.8852 83.0712 89.3472 83.1878 89.8606 83.1878ZM92.6326 83.9998V81.7878L92.7306 80.3038L92.5906 78.8198V73.6118H93.5846V83.9998H92.6326Z" fill="white"/>
<path d="M83.2127 83.9996V82.3756L83.1707 82.1096V79.3936C83.1707 78.7683 82.9934 78.2876 82.6387 77.9516C82.2934 77.6156 81.7754 77.4476 81.0847 77.4476C80.6087 77.4476 80.1561 77.5269 79.7267 77.6856C79.2974 77.8443 78.9334 78.0543 78.6347 78.3156L78.1867 77.5736C78.5601 77.2563 79.0081 77.0136 79.5307 76.8456C80.0534 76.6683 80.6041 76.5796 81.1827 76.5796C82.1347 76.5796 82.8674 76.8176 83.3807 77.2936C83.9034 77.7603 84.1647 78.4743 84.1647 79.4356V83.9996H83.2127ZM80.6787 84.0696C80.1281 84.0696 79.6474 83.9809 79.2367 83.8036C78.8354 83.6169 78.5274 83.3649 78.3127 83.0476C78.0981 82.7209 77.9907 82.3476 77.9907 81.9276C77.9907 81.5449 78.0794 81.1996 78.2567 80.8916C78.4434 80.5743 78.7421 80.3223 79.1527 80.1356C79.5727 79.9396 80.1327 79.8416 80.8327 79.8416H83.3667V80.5836H80.8607C80.1514 80.5836 79.6567 80.7096 79.3767 80.9616C79.1061 81.2136 78.9707 81.5263 78.9707 81.8996C78.9707 82.3196 79.1341 82.6556 79.4607 82.9076C79.7874 83.1596 80.2447 83.2856 80.8327 83.2856C81.3927 83.2856 81.8734 83.1596 82.2747 82.9076C82.6854 82.6463 82.9841 82.2729 83.1707 81.7876L83.3947 82.4736C83.2081 82.9589 82.8814 83.3463 82.4147 83.6356C81.9574 83.9249 81.3787 84.0696 80.6787 84.0696Z" fill="white"/>
<path d="M74.847 83.9998V76.6498H75.841V83.9998H74.847ZM75.351 75.0258C75.1457 75.0258 74.973 74.9558 74.833 74.8158C74.693 74.6758 74.623 74.5078 74.623 74.3118C74.623 74.1158 74.693 73.9525 74.833 73.8218C74.973 73.6818 75.1457 73.6118 75.351 73.6118C75.5564 73.6118 75.729 73.6771 75.869 73.8078C76.009 73.9385 76.079 74.1018 76.079 74.2978C76.079 74.5032 76.009 74.6758 75.869 74.8158C75.7384 74.9558 75.5657 75.0258 75.351 75.0258Z" fill="white"/>
<path d="M69.1526 84.0696C68.518 84.0696 67.944 83.9249 67.4306 83.6356C66.9173 83.3369 66.5066 82.9123 66.1986 82.3616C65.9 81.8016 65.7506 81.1203 65.7506 80.3176C65.7506 79.5149 65.9 78.8383 66.1986 78.2876C66.4973 77.7276 66.9033 77.3029 67.4166 77.0136C67.93 76.7243 68.5086 76.5796 69.1526 76.5796C69.8526 76.5796 70.478 76.7383 71.0286 77.0556C71.5886 77.3636 72.0273 77.8023 72.3446 78.3716C72.662 78.9316 72.8206 79.5803 72.8206 80.3176C72.8206 81.0643 72.662 81.7176 72.3446 82.2776C72.0273 82.8376 71.5886 83.2763 71.0286 83.5936C70.478 83.9109 69.8526 84.0696 69.1526 84.0696ZM65.3586 86.7156V76.6496H66.3106V78.8616L66.2126 80.3316L66.3526 81.8156V86.7156H65.3586ZM69.0826 83.1876C69.6053 83.1876 70.072 83.0709 70.4826 82.8376C70.8933 82.5949 71.22 82.2589 71.4626 81.8296C71.7053 81.3909 71.8266 80.8869 71.8266 80.3176C71.8266 79.7483 71.7053 79.2489 71.4626 78.8196C71.22 78.3903 70.8933 78.0543 70.4826 77.8116C70.072 77.5689 69.6053 77.4476 69.0826 77.4476C68.56 77.4476 68.0886 77.5689 67.6686 77.8116C67.258 78.0543 66.9313 78.3903 66.6886 78.8196C66.4553 79.2489 66.3386 79.7483 66.3386 80.3176C66.3386 80.8869 66.4553 81.3909 66.6886 81.8296C66.9313 82.2589 67.258 82.5949 67.6686 82.8376C68.0886 83.0709 68.56 83.1876 69.0826 83.1876Z" fill="white"/>
<path d="M59.695 76.5796C60.2923 76.5796 60.8103 76.6963 61.249 76.9296C61.697 77.1536 62.0423 77.4989 62.285 77.9656C62.537 78.4323 62.663 79.0203 62.663 79.7296V83.9996H61.669V79.8276C61.669 79.0529 61.4823 78.4696 61.109 78.0776C60.745 77.6763 60.227 77.4756 59.555 77.4756C59.051 77.4756 58.6123 77.5829 58.239 77.7976C57.875 78.0029 57.5903 78.3063 57.385 78.7076C57.189 79.0996 57.091 79.5756 57.091 80.1356V83.9996H56.097V79.8276C56.097 79.0529 55.9103 78.4696 55.537 78.0776C55.1637 77.6763 54.641 77.4756 53.969 77.4756C53.4743 77.4756 53.0403 77.5829 52.667 77.7976C52.2937 78.0029 52.0043 78.3063 51.799 78.7076C51.603 79.0996 51.505 79.5756 51.505 80.1356V83.9996H50.511V76.6496H51.463V78.6376L51.309 78.2876C51.533 77.7556 51.8923 77.3403 52.387 77.0416C52.891 76.7336 53.4837 76.5796 54.165 76.5796C54.8837 76.5796 55.495 76.7616 55.999 77.1256C56.503 77.4803 56.8297 78.0169 56.979 78.7356L56.587 78.5816C56.8017 77.9843 57.1797 77.5036 57.721 77.1396C58.2717 76.7663 58.9297 76.5796 59.695 76.5796Z" fill="white"/>
<path d="M42.9793 86.7859C42.6339 86.7859 42.3026 86.7299 41.9853 86.6179C41.6773 86.5059 41.4113 86.3379 41.1873 86.1139L41.6493 85.3719C41.8359 85.5492 42.0366 85.6846 42.2513 85.7779C42.4753 85.8806 42.7226 85.9319 42.9933 85.9319C43.3199 85.9319 43.5999 85.8386 43.8333 85.6519C44.0759 85.4746 44.3046 85.1572 44.5193 84.6999L44.9953 83.6219L45.1073 83.4679L48.1313 76.6499H49.1113L45.4293 84.8819C45.2239 85.3579 44.9953 85.7359 44.7433 86.0159C44.5006 86.2959 44.2346 86.4919 43.9453 86.6039C43.6559 86.7252 43.3339 86.7859 42.9793 86.7859ZM44.9393 84.2099L41.5513 76.6499H42.5873L45.5833 83.3979L44.9393 84.2099Z" fill="white"/>
<path d="M39.1633 83.9998V73.6118H40.1573V83.9998H39.1633Z" fill="white"/>
<path d="M33.382 84.0696C32.6727 84.0696 32.0334 83.9109 31.464 83.5936C30.904 83.2669 30.4607 82.8236 30.134 82.2636C29.8074 81.6943 29.644 81.0456 29.644 80.3176C29.644 79.5803 29.8074 78.9316 30.134 78.3716C30.4607 77.8116 30.904 77.3729 31.464 77.0556C32.024 76.7383 32.6634 76.5796 33.382 76.5796C34.11 76.5796 34.754 76.7383 35.314 77.0556C35.8834 77.3729 36.3267 77.8116 36.644 78.3716C36.9707 78.9316 37.134 79.5803 37.134 80.3176C37.134 81.0456 36.9707 81.6943 36.644 82.2636C36.3267 82.8236 35.8834 83.2669 35.314 83.5936C34.7447 83.9109 34.1007 84.0696 33.382 84.0696ZM33.382 83.1876C33.914 83.1876 34.3854 83.0709 34.796 82.8376C35.2067 82.5949 35.5287 82.2589 35.762 81.8296C36.0047 81.3909 36.126 80.8869 36.126 80.3176C36.126 79.7389 36.0047 79.2349 35.762 78.8056C35.5287 78.3763 35.2067 78.0449 34.796 77.8116C34.3854 77.5689 33.9187 77.4476 33.396 77.4476C32.8734 77.4476 32.4067 77.5689 31.996 77.8116C31.5854 78.0449 31.2587 78.3763 31.016 78.8056C30.7734 79.2349 30.652 79.7389 30.652 80.3176C30.652 80.8869 30.7734 81.3909 31.016 81.8296C31.2587 82.2589 31.5854 82.5949 31.996 82.8376C32.4067 83.0709 32.8687 83.1876 33.382 83.1876Z" fill="white"/>
</g>
<defs>
<clipPath id="clip0_1435_9874">
<rect x="10" y="10" width="100" height="100" rx="50" fill="white"/>
</clipPath>
</defs>
</svg>
