<svg width="120" height="120" viewBox="0 0 120 120" fill="none" xmlns="http://www.w3.org/2000/svg">
<circle cx="60" cy="60" r="50" fill="url(#paint0_linear_202_6376)" fill-opacity="0.2"/>
<path fill-rule="evenodd" clip-rule="evenodd" d="M53.6064 30C48.8984 30 45.0819 33.6954 45.0819 38.254V43.9683H59.8359V45.5556H38.5245C33.8166 45.5556 30 49.251 30 53.8096L30 66.1905C30 70.7491 33.8166 74.4445 38.5245 74.4445H43.4425V67.4604C43.4425 62.9018 47.2591 59.2064 51.9671 59.2064H67.7047C71.6884 59.2064 74.9178 56.0795 74.9178 52.2223V38.254C74.9178 33.6954 71.1012 30 66.3932 30H53.6064ZM51.6392 40.1587C53.2689 40.1587 54.59 38.8796 54.59 37.3016C54.59 35.7236 53.2689 34.4445 51.6392 34.4445C50.0095 34.4445 48.6884 35.7236 48.6884 37.3016C48.6884 38.8796 50.0095 40.1587 51.6392 40.1587Z" fill="url(#paint1_linear_202_6376)"/>
<path fill-rule="evenodd" clip-rule="evenodd" d="M66.3934 90.0002C71.1013 90.0002 74.9179 86.3048 74.9179 81.7462V76.0319L60.1639 76.0319L60.1639 74.4446L81.4753 74.4446C86.1832 74.4446 89.9998 70.7492 89.9998 66.1906V53.8096C89.9998 49.2511 86.1832 45.5557 81.4753 45.5557L76.5573 45.5557V52.5398C76.5573 57.0984 72.7407 60.7938 68.0327 60.7938L52.2951 60.7938C48.3114 60.7938 45.082 63.9207 45.082 67.7779L45.082 81.7462C45.082 86.3048 48.8986 90.0002 53.6066 90.0002H66.3934ZM68.3606 79.8414C66.7309 79.8414 65.4098 81.1206 65.4098 82.6986C65.4098 84.2766 66.7309 85.5557 68.3606 85.5557C69.9903 85.5557 71.3114 84.2766 71.3114 82.6986C71.3114 81.1206 69.9903 79.8414 68.3606 79.8414Z" fill="url(#paint2_linear_202_6376)"/>
<defs>
<linearGradient id="paint0_linear_202_6376" x1="60" y1="10" x2="60" y2="110" gradientUnits="userSpaceOnUse">
<stop stop-color="#FDD22E"/>
<stop offset="1" stop-color="#2573B3"/>
</linearGradient>
<linearGradient id="paint1_linear_202_6376" x1="52.4589" y1="30" x2="52.4589" y2="74.4445" gradientUnits="userSpaceOnUse">
<stop stop-color="#327EBD"/>
<stop offset="1" stop-color="#1565A7"/>
</linearGradient>
<linearGradient id="paint2_linear_202_6376" x1="67.5409" y1="45.5557" x2="67.5409" y2="90.0002" gradientUnits="userSpaceOnUse">
<stop stop-color="#FFDA4B"/>
<stop offset="1" stop-color="#F9C600"/>
</linearGradient>
</defs>
</svg>
