<svg width="120" height="120" viewBox="0 0 120 120" fill="none" xmlns="http://www.w3.org/2000/svg">
<circle cx="60" cy="60" r="50" fill="#141819"/>
<path d="M66.6614 59.4453C66.6614 56.1903 63.903 53.5513 60.5 53.5513C57.0973 53.5513 54.3386 56.1903 54.3386 59.4453C54.3386 62.7007 57.0973 65.3397 60.5 65.3397C63.903 65.3397 66.6614 62.7007 66.6614 59.4453Z" fill="#53C1DE"/>
<path fill-rule="evenodd" clip-rule="evenodd" d="M80.5108 48.5026C81.8121 43.4447 83.4476 34.0653 77.6819 30.8854C71.9432 27.7193 64.4754 33.786 60.5321 37.4276C56.6002 33.8223 48.9226 27.7815 43.1617 30.9715C37.4253 34.1482 39.1943 43.3721 40.5243 48.4617C35.1731 49.9157 26 53.0472 26 59.4453C26 65.8253 35.1636 69.2323 40.483 70.6848C39.1481 75.8026 37.4677 84.8948 43.2115 88.0643C48.9937 91.2537 56.6476 85.3568 60.6273 81.6754C64.596 85.3383 71.9922 91.2739 77.732 88.0955C83.49 84.907 81.9902 75.6533 80.6602 70.5341C85.8167 69.0784 95 65.7456 95 59.4453C95 53.1086 85.7778 49.9517 80.5108 48.5026ZM79.8573 67.8212C78.984 65.1767 77.8053 62.3644 76.3633 59.4593C77.7396 56.6229 78.8725 53.8469 79.7215 51.2193C83.5825 52.2901 92.0526 54.7376 92.0526 59.4453C92.0526 64.1972 83.9247 66.6678 79.8573 67.8212ZM76.2549 85.6552C71.9725 88.0265 65.6109 82.3503 62.68 79.6528C64.6243 77.6185 66.5674 75.2535 68.4637 72.6274C71.7996 72.3443 74.951 71.8813 77.8089 71.2495C78.7451 74.8704 80.5565 83.2731 76.2549 85.6552ZM44.6843 85.6213C40.4013 83.2589 42.3589 75.1455 43.341 71.3757C46.1672 71.9736 49.2957 72.4039 52.6395 72.6633C54.5484 75.2331 56.5476 77.5951 58.5624 79.6636C56.0731 81.9671 48.9874 87.9947 44.6843 85.6213ZM28.9474 59.4453C28.9474 54.6755 37.3668 52.246 41.3158 51.1778C42.1794 53.8644 43.312 56.6734 44.6788 59.514C43.2943 62.3969 42.1455 65.2506 41.274 67.9687C37.5085 66.9377 28.9474 64.2181 28.9474 59.4453ZM44.6385 33.4119C48.9391 31.0306 55.6118 36.83 58.4665 39.4403C56.4621 41.4994 54.4812 43.8437 52.5888 46.3985C49.3436 46.6862 46.2371 47.1484 43.3813 47.7674C42.3099 43.6624 40.3426 35.7906 44.6385 33.4119ZM70.5723 49.4634C72.774 49.7292 74.8832 50.0827 76.8638 50.5153C76.2693 52.3384 75.5281 54.2448 74.6554 56.199C73.3901 53.9024 72.0319 51.6521 70.5723 49.4634ZM60.533 41.4553C61.8925 42.8642 63.2541 44.4375 64.5935 46.1444C61.8766 46.0216 59.1552 46.021 56.4383 46.1426C57.7789 44.4516 59.1521 42.8806 60.533 41.4553ZM46.37 56.197C45.5116 54.2494 44.7772 52.3346 44.1774 50.4855C46.1461 50.064 48.2455 49.7196 50.4329 49.4581C48.9692 51.642 47.6133 53.8915 46.37 56.197ZM50.4958 69.6338C48.2361 69.3925 46.1049 69.0656 44.1368 68.6558C44.746 66.7739 45.4966 64.8179 46.3733 62.8286C47.6339 65.1578 49.0103 67.4292 50.4958 69.6338ZM60.6145 77.6345C59.2174 76.1924 57.8241 74.5974 56.463 72.8818C59.1955 72.9845 61.9332 72.9847 64.6652 72.8681C63.3216 74.6149 61.9649 76.2122 60.6145 77.6345ZM74.6835 62.7273C75.6057 64.7382 76.3832 66.6837 77.0006 68.5337C74.9998 68.9704 72.84 69.3221 70.5641 69.5832C72.0346 67.3532 73.4142 65.0678 74.6835 62.7273ZM66.8187 69.925C62.6393 70.2107 58.4336 70.2076 54.2528 69.9484C51.877 66.6287 49.7623 63.1375 47.9368 59.5131C49.7534 55.8962 51.8528 52.4119 54.2173 49.0974C58.4014 48.7948 62.611 48.7941 66.7949 49.0991C69.1389 52.4135 71.2353 55.8887 73.094 59.4731C71.2573 63.0882 69.1469 66.5795 66.8187 69.925ZM76.2097 33.328C80.5114 35.7015 78.5966 44.1311 77.6569 47.7966C74.7943 47.1647 71.6857 46.6944 68.431 46.4023C66.535 43.8197 64.5706 41.4714 62.5985 39.4388C65.4899 36.7723 71.9496 30.9778 76.2097 33.328Z" fill="#53C1DE"/>
</svg>
