<svg width="120" height="120" viewBox="0 0 120 120" fill="none" xmlns="http://www.w3.org/2000/svg">
<circle cx="60" cy="60" r="50" fill="#3D7CD5"/>
<g clip-path="url(#clip0_1414_12262)">
<path fill-rule="evenodd" clip-rule="evenodd" d="M52.9353 52.1837C52.0527 51.9988 50.9863 51.7029 50.1038 50.8892C48.0813 49.077 47.4561 46.0812 46.0587 46.8579C44.6246 47.6346 44.6614 52.4796 49.1477 53.959C50.6921 54.4767 52.0895 54.4767 53.2295 54.4398C53.5236 54.4398 56.061 54.1809 56.9435 52.9234C57.8261 51.6659 57.2009 51.333 56.9067 51.1851C56.5758 51.0002 54.1855 52.4056 52.9353 52.1837Z" fill="#FFAB19" stroke="#222222" stroke-width="1.2" stroke-linecap="round" stroke-linejoin="round"/>
<path fill-rule="evenodd" clip-rule="evenodd" d="M46.2794 46.9321C45.5439 47.154 45.1762 48.7073 45.5439 50.0018C45.9116 51.2962 46.5 51.962 46.9781 52.4428C46.9045 52.1839 46.7574 51.3702 47.3826 50.8894C48.1548 50.2607 49.5154 50.5935 49.5154 50.5935C49.5154 50.5935 48.3754 49.1881 47.7871 48.1895C47.1987 47.3389 47.0148 46.7841 46.2794 46.9321Z" fill="white"/>
<path fill-rule="evenodd" clip-rule="evenodd" d="M58.7454 55.0311C58.0835 55.475 55.8036 57.1023 52.8985 58.0269L52.7514 58.0639C52.6043 58.1009 52.5308 58.2858 52.6043 58.4337C53.2295 59.3214 54.3694 61.0966 52.3469 61.7254C50.398 62.3541 46.7575 57.1393 48.3019 55.7708C49.0006 55.253 49.6257 55.5119 49.9567 55.6599C50.1406 55.7338 50.3244 55.7338 50.5083 55.6969C50.9496 55.5489 51.7586 55.253 52.3837 54.9202C53.9649 54.1065 54.3327 53.7737 55.0681 53.2189C55.8036 52.6641 57.4951 51.2957 58.8557 52.4792C60.0325 53.4778 59.3705 54.5873 58.7454 55.0311Z" fill="#FFAB19" stroke="#222222" stroke-width="1.2" stroke-linecap="round" stroke-linejoin="round"/>
<path fill-rule="evenodd" clip-rule="evenodd" d="M64.5924 47.3384C64.7762 47.4863 67.0194 50.1492 67.7548 49.4835C68.6374 48.7068 69.8509 47.1905 71.1747 48.4109C72.4985 49.6314 69.998 51.7026 68.9316 52.2573C66.3942 53.4039 64.335 51.2218 63.8937 50.63C63.4524 50.0383 62.6802 49.0397 62.6802 48.0781C62.7169 47.0425 63.9672 46.7836 64.5924 47.3384Z" fill="#FFAB19" stroke="#222222" stroke-width="1.2" stroke-linecap="round" stroke-linejoin="round"/>
<path fill-rule="evenodd" clip-rule="evenodd" d="M61.871 53.2559C62.3123 52.923 62.7535 52.3683 63.3419 51.5176C63.8199 50.8149 64.3348 49.4465 64.3348 49.4465C64.6657 48.5219 64.8863 46.7466 63.6728 46.7836C62.8638 46.8206 62.1284 46.7096 60.8781 46.5247C58.6717 46.0809 58.2672 45.785 57.3479 47.3014C56.3551 49.0766 53.8177 50.3711 56.9434 53.4408C56.9434 53.4408 58.7453 54.8463 60.9149 56.9914C62.3858 58.4338 64.7025 60.5049 65.5115 61.2076C65.6953 61.3555 65.916 61.4295 66.1366 61.4665C69.7036 61.7994 72.3512 61.4295 72.3512 59.8392C72.3512 57.1763 67.0927 58.1009 67.0927 58.1009C67.0927 58.1009 65.4012 56.6585 64.6289 55.9558L61.871 53.2559Z" fill="#FFAB19" stroke="#222222" stroke-width="1.2" stroke-linecap="round" stroke-linejoin="round"/>
<path fill-rule="evenodd" clip-rule="evenodd" d="M63.4889 50.7778C63.4889 50.7778 64.1876 49.8532 62.6063 48.8546C60.9515 47.782 60.3264 48.9656 59.6645 49.8532C58.929 50.9997 59.6645 51.5545 60.4 52.2202C60.9883 52.775 61.5399 53.2188 61.5399 53.2188C61.5399 53.2188 62.6799 52.4421 63.4889 50.7778Z" fill="white"/>
<path fill-rule="evenodd" clip-rule="evenodd" d="M55.9875 50.1863C56.7965 51.2219 58.0468 52.5163 56.4655 53.5889C54.2959 54.8094 52.4941 51.1109 52.1263 49.8164C51.7954 48.6699 52.7515 47.9302 53.5605 47.3015C55.1417 46.155 56.4655 45.1194 57.9364 45.6742C59.7751 46.3399 58.4513 47.8193 57.5319 48.485C56.9804 48.8918 56.4288 49.3356 56.0243 49.5945C55.9139 49.7795 55.8772 50.0014 55.9875 50.1863Z" fill="#FFAB19" stroke="#222222" stroke-width="1.2" stroke-linecap="round" stroke-linejoin="round"/>
<path fill-rule="evenodd" clip-rule="evenodd" d="M64.4083 28.2174C63.5625 28.0695 62.68 27.9955 61.6503 28.0695C59.922 28.1435 58.2672 28.7722 58.2672 28.7722L53.8177 25.8504C53.6706 25.7764 53.4868 25.8874 53.5235 26.0353L54.2958 32.6556C54.5164 32.3597 50.3979 37.3896 53.0087 41.6059C55.6196 45.8221 61.1723 47.7083 68.0856 46.3399C74.9989 44.9715 76.6169 40.9771 76.1756 38.869C75.7343 36.7609 73.1235 35.9842 73.1235 35.9842C73.1235 35.9842 73.0867 34.3199 71.91 32.2857C71.2113 31.0653 68.8578 29.327 68.8578 29.327L67.9017 25.3696C67.8649 25.2217 67.6811 25.1847 67.5708 25.2587L64.4083 28.2174Z" fill="#FFAB19" stroke="#222222" stroke-width="1.2"/>
<path fill-rule="evenodd" clip-rule="evenodd" d="M73.0132 36.1322C73.0132 36.1322 75.5505 36.7979 75.9918 38.906C76.4331 41.0141 74.668 44.8235 67.8282 46.155C58.9292 48.0042 54.7003 42.6784 57.1641 38.7581C59.6279 34.8007 63.8568 38.1663 66.9457 37.9444C69.5933 37.7595 69.8875 35.4295 73.0132 36.1322Z" fill="white"/>
<path fill-rule="evenodd" clip-rule="evenodd" d="M61.4297 40.0894C61.4297 39.9415 61.5767 39.8305 61.7238 39.8675C62.4225 40.1264 64.4082 40.7182 66.6146 40.8661C68.6004 40.9771 69.7771 40.8661 70.3287 40.7552C70.5125 40.7182 70.6596 40.9031 70.5861 41.088C70.2551 42.0866 68.8578 44.8604 64.9966 44.6385C61.6503 44.2687 61.3193 41.9017 61.4297 40.0894Z" fill="white" stroke="#222222" stroke-width="1.2" stroke-linecap="round" stroke-linejoin="round"/>
<path d="M75.4033 37.9815C75.4033 37.9815 78.051 37.9445 79.7793 36.5391" stroke="#222222" stroke-width="1.2" stroke-linecap="round" stroke-linejoin="round"/>
<path d="M75.5505 40.1636C75.5505 40.1636 76.9847 40.8663 79.3014 40.6814" stroke="#222222" stroke-width="1.2" stroke-linecap="round" stroke-linejoin="round"/>
<path fill-rule="evenodd" clip-rule="evenodd" d="M66.7985 36.9829C67.5707 36.9829 68.3797 37.0569 68.4165 37.3158C68.4533 37.8336 67.9017 38.8691 67.3133 38.9061C66.6514 38.9801 65.1069 38.0555 65.1069 37.4637C65.0702 37.0199 66.063 36.9829 66.7985 36.9829Z" fill="#222222" stroke="#222222" stroke-width="1.2" stroke-linecap="round" stroke-linejoin="round"/>
<path d="M50.2507 36.4282C50.2507 36.4282 53.4132 37.4638 54.7002 38.6103" stroke="#222222" stroke-width="1.2" stroke-linecap="round" stroke-linejoin="round"/>
<path d="M50.5081 40.1267C50.5081 40.1267 53.2292 40.5335 54.8105 39.9048" stroke="#222222" stroke-width="1.2" stroke-linecap="round" stroke-linejoin="round"/>
<path fill-rule="evenodd" clip-rule="evenodd" d="M71.1376 32.6554C72.2041 34.3197 72.2408 36.206 71.2112 36.8717C70.1815 37.5374 68.49 36.7607 67.3868 35.0964C66.3204 33.4321 66.2836 31.5459 67.3133 30.8802C68.3429 30.1775 70.0712 30.9911 71.1376 32.6554Z" fill="white" stroke="#222222" stroke-width="1.2" stroke-linecap="round" stroke-linejoin="round"/>
<path fill-rule="evenodd" clip-rule="evenodd" d="M70.9906 34.7636C70.9906 35.1704 70.6964 35.5033 70.3287 35.5033C69.9609 35.5033 69.6667 35.1704 69.6667 34.7636C69.6667 34.3568 69.9609 34.0239 70.3287 34.0239C70.6964 34.0239 70.9906 34.3568 70.9906 34.7636Z" fill="#222222"/>
<path fill-rule="evenodd" clip-rule="evenodd" d="M62.0181 33.6912C63.1213 35.3185 63.0477 37.3157 62.0549 38.0184C60.8414 38.7211 59.2234 38.2033 58.1202 36.576C56.9802 34.9487 56.9067 32.8405 58.0466 32.0269C59.1866 31.1762 60.9149 32.0639 62.0181 33.6912Z" fill="white" stroke="#222222" stroke-width="1.2" stroke-linecap="round" stroke-linejoin="round"/>
<path fill-rule="evenodd" clip-rule="evenodd" d="M61.7975 35.8364C61.7975 36.2432 61.5033 36.5761 61.1355 36.5761C60.7678 36.5761 60.4736 36.2432 60.4736 35.8364C60.4736 35.4295 60.7678 35.0967 61.1355 35.0967C61.5033 35.1337 61.7975 35.4295 61.7975 35.8364Z" fill="#222222"/>
</g>
<g clip-path="url(#clip1_1414_12262)">
<path d="M93.6807 83.247C92.6883 83.3725 92.068 83.3725 91.8199 83.498C91.3237 83.749 90.2072 84 88.8426 84C87.1058 84 85.4931 83.3725 84.1285 82.3684H83.1361C82.7639 82.3684 82.5158 82.3684 82.1436 82.2429C80.779 82.7449 79.5385 82.7449 78.7942 82.7449H78.5461C76.8093 82.8704 75.0725 82.4939 73.5839 81.7409C72.8396 81.9919 72.2193 82.1174 71.475 82.1174L66.8849 82.2429C64.776 82.2429 62.9152 81.4899 61.4266 80.1093C60.8063 80.1093 60.186 79.9838 59.6898 79.8583C58.9455 80.7368 57.953 81.4899 56.7125 82.1174C54.3554 83.247 51.7503 83.3725 49.2692 82.3684C49.0211 82.2429 48.6489 82.1174 48.4008 81.9919L45.5476 82.3684H44.6792C44.307 82.4939 44.0589 82.7449 43.8108 82.8704C41.95 83.749 40.2132 83.749 39.4689 83.749H38.8486C36.7397 83.749 34.6308 83.1215 33.0181 81.9919C32.5219 82.1174 31.9016 82.2429 31.4054 82.2429C30.2889 82.9959 28.9243 83.498 27.4356 83.6235H26.9394C22.8456 83.6235 19.4961 80.4858 19.124 76.3441V76.2186C19.124 75.5911 18.9999 74.2105 19.124 72.7045C19.124 71.9514 19.248 70.8219 19.248 70.5708C19.248 69.5668 19.4961 68.5628 19.8683 67.5587C19.6202 66.5547 19.7443 65.5506 19.8683 64.5466V64.17C19.9924 63.2915 20.2405 61.5344 21.1089 59.7773C22.7216 56.7652 25.6989 54.8826 29.0483 54.8826C30.1648 54.2551 31.2813 54.004 32.5219 54.004H32.894C35.3751 54.1296 37.6081 55.3846 38.9727 57.3927C40.0892 56.3887 41.4538 55.7611 42.9424 55.5101C45.9197 55.1336 48.4008 55.0081 50.5098 55.3846C51.6263 54.3806 53.1149 53.6275 54.6036 53.502L57.829 53H58.8214C60.6822 53 62.543 53.753 64.0317 55.0081H64.2798L68.9939 54.8826C70.9787 54.8826 72.7155 54.7571 73.0877 54.7571H73.7079C75.4447 54.7571 77.3055 55.3846 78.6701 56.5142C80.0347 55.5101 81.6474 55.0081 83.3842 55.0081H84.9969C86.2374 54.2551 87.602 53.753 89.0907 53.753L93.0604 53.6275H93.1845C97.4023 53.6275 100.876 57.1417 101 61.4089C101 63.417 100.38 65.1741 99.1391 66.6802V70.3198C100.256 71.5749 100.876 73.2065 101 74.9636C101.248 79.2308 98.0226 82.8704 93.6807 83.247Z" fill="white"/>
<path d="M93.4327 78.7286C91.82 78.8541 90.8276 78.9796 90.5795 79.1051L90.4554 79.2306C90.0832 79.3561 89.587 79.6072 88.9668 79.6072C88.2224 79.6072 87.354 79.3561 86.7338 78.7286C86.4857 78.4776 86.2376 78.2266 86.1135 77.9756H83.2603C82.764 77.9756 82.2678 77.8501 81.8957 77.5991C81.7716 77.7246 81.5235 77.7246 81.3994 77.8501C80.407 78.3521 79.5386 78.3521 78.9183 78.3521H78.2981C76.4373 78.3521 74.9486 77.7246 73.9562 76.595C73.3359 77.2225 72.4675 77.5991 71.5991 77.5991L67.0091 77.7246C65.3964 77.7246 63.9078 76.4695 63.6596 74.9634C63.0394 75.3399 62.4191 75.591 61.6748 75.591C60.9304 75.591 60.1861 75.3399 59.5658 74.9634C59.4418 74.8379 59.3177 74.7124 59.1937 74.7124C58.8215 74.9634 58.3253 74.9634 57.8291 74.9634H57.4569C56.9607 76.4695 56.0923 77.4736 54.7277 78.1011C54.1074 78.3521 53.3631 78.6031 52.7429 78.6031C52.1226 78.6031 51.3783 78.4776 50.758 78.2266C50.1377 77.9756 49.6415 77.5991 49.2693 77.2225C49.0212 77.348 48.7731 77.348 48.525 77.4736L44.9274 77.9756H44.4312C44.059 77.9756 43.8109 77.9756 43.4388 77.8501C42.9425 78.3521 42.3223 78.6031 41.8261 78.8541C40.8336 79.3561 39.9652 79.3561 39.345 79.3561H38.7247C36.4917 79.3561 34.7549 78.3521 33.7625 76.9715C32.7701 77.5991 31.5295 77.9756 30.413 77.9756H29.6687C29.6687 78.1011 29.5447 78.1011 29.5447 78.2266C28.9244 78.8541 28.056 79.3561 27.1876 79.3561H26.9395C25.2028 79.3561 23.7141 77.9756 23.59 76.093V75.9675C23.59 75.3399 23.466 74.2104 23.59 72.9553C23.59 72.0768 23.7141 70.6962 23.7141 70.6962C23.7141 69.8177 24.0863 69.0646 24.5825 68.4371C24.0863 67.4331 23.9622 66.3035 24.2103 65.0484V64.7974C24.3344 64.0444 24.4584 62.9148 24.9546 61.7853C25.823 60.1537 27.4357 59.2752 29.2966 59.2752H30.1649C30.7852 58.7731 31.5295 58.3966 32.3979 58.3966C34.2587 58.3966 35.7474 60.0282 35.7474 61.9108V63.2914C36.3677 63.0404 37.112 62.9148 37.8563 62.9148C38.2285 62.9148 38.4766 62.9148 38.8487 63.0404C39.345 62.4128 40.0893 62.0363 40.8336 61.9108C40.9577 61.6598 41.0817 61.5343 41.2058 61.2833C41.702 60.5302 42.5704 60.0282 43.4388 59.9027C44.1831 59.7772 45.6717 59.6517 47.4085 59.6517C49.3934 59.6517 51.0061 59.9027 52.2466 60.5302C52.6188 59.1497 53.6112 58.1456 55.0999 57.8946L58.3253 57.3926H58.8215C59.814 57.3926 60.6823 57.7691 61.3026 58.5221C61.5507 58.7731 61.9229 59.2752 62.0469 59.6517L62.171 60.0282C62.7913 59.6517 63.4115 59.4007 64.1559 59.4007L68.994 59.2752C71.351 59.2752 73.4599 59.1497 73.4599 59.0242H73.7081C74.5764 59.0242 75.5689 59.4007 76.1891 60.0282C76.6854 60.5302 77.0575 61.1578 77.1816 61.9108H77.4297C77.8019 61.9108 78.05 61.9108 78.4221 62.0363C78.9183 61.4088 79.6627 61.0323 80.407 60.9067C81.0273 60.0282 82.1438 59.2752 83.3843 59.2752H86.6097C87.23 58.5221 88.0984 58.0201 89.2149 58.0201H93.1846C95.0454 58.0201 96.5341 59.5262 96.6581 61.4088C96.6581 62.7893 95.9138 64.0444 94.7973 64.5464V72.2023C95.7898 72.7043 96.5341 73.8339 96.6581 75.0889C96.7822 76.9715 95.2935 78.6031 93.4327 78.7286Z" fill="#F9A83A"/>
<path d="M59.0696 63.668L58.2012 68.1862L60.6823 67.8097L59.0696 63.668Z" fill="#F9A83A"/>
<path d="M29.4205 68.0606C28.5521 67.9351 28.0559 67.3076 28.304 65.5505V65.2995C28.5521 63.7934 28.6761 63.4169 29.4205 63.4169C29.6686 63.4169 29.9167 63.5424 30.1648 63.7934C30.4129 64.0444 30.9091 64.4209 31.1572 65.174C31.4053 65.676 31.4053 66.0525 31.5294 66.429V66.931C31.5294 67.1821 31.7775 67.4331 32.1497 67.5586C32.5218 67.6841 32.894 67.3076 33.0181 66.931C33.0181 66.931 33.2662 62.1618 33.2662 62.0363C33.2662 61.6598 32.894 61.2833 32.5218 61.2833C32.1497 61.2833 31.7775 61.6598 31.7775 62.0363V63.4169C31.1572 62.7893 30.4129 62.1618 29.5445 62.1618C27.1875 61.7853 26.9394 63.9189 26.8153 65.174V65.425C26.5672 67.8096 27.3115 69.3157 29.1724 69.6922C31.1572 70.0687 32.5218 70.4452 32.5218 71.7003C32.5218 72.2023 32.2737 72.7043 31.7775 73.0808C31.2813 73.5829 30.537 73.7084 29.7926 73.5829C29.5445 73.5829 29.4205 73.4574 29.1724 73.4574C28.9243 73.3319 28.1799 72.9553 27.9318 72.4533C27.8078 71.9513 27.6837 71.3238 27.6837 70.9472V70.6962C27.6837 70.3197 27.3115 69.9432 26.9394 69.9432C26.5672 69.9432 26.1951 70.3197 26.1951 70.6962C26.1951 70.6962 26.1951 72.2023 26.071 73.0808C25.9469 74.5869 26.071 75.7165 26.071 75.842C26.071 76.2185 26.4432 76.595 26.8153 76.595C27.1875 76.595 27.5597 76.2185 27.5597 75.842V74.4614C28.0559 74.8379 28.8002 75.2144 29.6686 75.34C30.7851 75.591 31.9016 75.2144 32.7699 74.4614C33.5143 73.8339 34.0105 72.8298 34.0105 71.9513C34.0105 68.8136 30.9091 68.3116 29.4205 68.0606ZM50.2616 65.927C50.1376 66.0525 50.0135 66.178 49.7654 66.3035C49.6414 66.429 49.2692 66.5545 49.1451 66.5545L48.773 66.68C48.2768 66.931 47.5324 67.0566 46.7881 67.1821V63.6679C48.773 63.6679 50.5097 63.7934 50.8819 64.4209V64.6719C50.8819 64.923 50.6338 65.425 50.2616 65.927ZM54.6035 72.7043C54.2314 72.5788 53.7352 72.8298 53.6111 73.2064C53.363 74.0849 53.1149 74.0849 52.9908 74.2104C52.8668 74.3359 52.6187 74.2104 52.2465 74.0849C52.2465 74.0849 52.1224 73.8339 51.9984 73.7084C51.8743 73.4574 51.7503 72.4533 51.7503 71.8258C51.7503 69.5667 51.2541 68.3116 50.6338 67.6841C51.006 67.4331 51.3781 67.0566 51.3781 67.0566C52.2465 65.8015 52.4946 64.7974 51.9984 63.9189C50.7578 61.7853 45.4235 62.4128 43.6867 62.6638C43.3146 62.6638 42.9424 63.1659 43.0665 63.5424C43.0665 63.9189 43.5627 64.2954 43.9348 64.1699C44.307 64.1699 44.6792 64.0444 45.0513 64.0444V67.5586H44.6792C44.307 67.5586 43.9348 67.9351 43.9348 68.3116C43.9348 68.6881 44.307 69.0647 44.6792 69.0647H45.0513V73.4574L44.0589 73.5829C43.6867 73.5829 43.3146 74.0849 43.4386 74.4614C43.4386 74.8379 43.9348 75.2144 44.307 75.0889L47.9046 74.5869C48.2768 74.5869 48.6489 74.0849 48.5249 73.7084C48.5249 73.3319 48.0286 72.9553 47.6565 73.0808L46.54 73.2064V68.8136C47.2843 68.6881 47.9046 68.5626 48.5249 68.3116H48.773C49.0211 68.3116 49.2692 68.4371 49.3932 68.6881C49.6414 69.0646 49.8895 69.8177 50.0135 71.7003C50.0135 72.0768 50.1376 73.5829 50.3857 74.2104C50.5097 74.4614 50.8819 75.0889 51.5022 75.34C51.9984 75.4655 52.6187 75.7165 53.363 75.34C53.9833 74.9634 54.4795 74.5869 54.7276 73.4574C55.2238 73.2063 54.9757 72.8298 54.6035 72.7043ZM81.6474 70.3197C81.2752 70.3197 80.9031 70.6962 80.9031 71.0727V72.0768C80.9031 72.4533 80.779 72.9553 80.655 73.0808C80.5309 73.3319 80.4069 73.4574 80.1588 73.7084C80.0347 73.8339 79.7866 73.9594 79.5385 74.0849C79.2904 74.2104 79.1663 74.2104 78.6701 74.2104H78.1739C76.189 74.3359 75.9409 72.7043 75.9409 72.3278V69.0647C76.065 67.8096 76.3131 66.931 76.8093 66.5545C77.1814 66.3035 77.6777 66.429 78.546 66.68C79.5385 67.0566 80.1588 68.1861 80.2828 68.1861C80.4069 68.4371 80.779 68.5626 81.1512 68.5626C81.5233 68.4371 81.6474 68.1861 81.6474 67.8096V64.4209C81.6474 64.0444 81.2752 63.6679 80.9031 63.6679C80.5309 63.6679 80.1588 64.0444 80.1588 64.4209V65.8015C79.9106 65.5505 79.5385 65.425 79.1663 65.174C78.7942 64.9229 77.3055 64.2954 76.189 65.0485C75.3206 65.676 74.7004 66.8055 74.5763 68.6881V72.2023C74.7004 73.3319 75.5687 75.591 78.2979 75.591H78.6701C79.1663 75.591 79.6625 75.591 80.1588 75.34C80.5309 75.2144 80.9031 74.9634 81.2752 74.5869C81.5234 74.3359 81.6474 74.0849 81.8955 73.7084C82.1436 73.2063 82.2677 72.3278 82.3917 72.0768V70.8217C82.3917 70.5707 82.0196 70.3197 81.6474 70.3197ZM93.9288 75.34C93.9288 74.9634 93.5566 74.5869 93.1845 74.5869C92.9364 74.5869 92.5642 74.5869 92.192 74.7124C92.192 73.4574 92.192 70.8217 92.068 62.2873H93.1845C93.5566 62.2873 93.9288 61.9108 93.9288 61.5343C93.9288 61.1578 93.5566 60.7812 93.1845 60.7812L89.2147 60.9068C88.8426 60.9068 88.4704 61.2833 88.4704 61.6598C88.4704 62.0363 88.8426 62.4128 89.2147 62.4128H90.4553V67.6841L85.9893 68.4371V63.6679H87.2299C87.602 63.6679 87.9742 63.2914 87.9742 62.9149C87.9742 62.5383 87.602 62.1618 87.2299 62.1618H83.2601C82.8879 62.1618 82.5158 62.5383 82.5158 62.9149C82.5158 63.2914 82.8879 63.6679 83.2601 63.6679H84.5007V73.8339H83.2601C82.8879 73.8339 82.5158 74.2104 82.5158 74.5869C82.5158 74.9634 82.8879 75.34 83.2601 75.34L87.3539 75.4655C87.7261 75.4655 88.0982 75.0889 88.0982 74.7124C88.0982 74.3359 87.7261 73.9594 87.3539 73.9594H86.1134V70.0687L90.5793 69.3157V75.0889C89.5869 75.34 88.8426 75.34 88.4704 75.842C88.2223 76.093 88.2223 76.595 88.5945 76.846C88.8426 77.097 89.2147 76.9715 89.7109 76.846C90.0831 76.595 91.5718 76.4695 93.3085 76.344C93.6807 76.093 93.9288 75.7165 93.9288 75.34Z" fill="white"/>
<path d="M58.2012 68.1862L59.0696 63.668L60.6823 67.8097L58.2012 68.1862ZM64.7761 69.4413C64.528 69.5668 64.1558 69.6923 63.4115 70.0688L62.419 67.6842L59.5658 60.7813C59.5658 60.6558 59.4417 60.4048 59.3177 60.4048C59.1936 60.2793 58.9455 60.1538 58.6974 60.1538L55.472 60.5303C55.0998 60.5303 54.7277 60.9068 54.8517 61.4089C54.8517 61.7854 55.2239 62.1619 55.7201 62.0364C55.7201 62.0364 56.9606 61.9109 57.9531 61.7854C57.705 63.166 56.5885 68.8137 56.2163 70.5708L53.9833 70.4453C53.6112 70.4453 53.239 70.6963 53.239 71.1983C53.239 71.5749 53.4871 71.9514 53.9833 71.9514L57.705 72.0769C58.0771 72.0769 58.4493 71.8259 58.4493 71.3238C58.4493 70.9473 58.2012 70.5708 57.705 70.5708L57.829 69.4413L61.3026 68.8137L62.0469 70.6963C61.4266 71.0728 61.1785 71.1983 60.8063 71.5749C60.5582 71.9514 60.6823 72.3279 60.9304 72.5789C61.3026 72.8299 61.7988 72.7044 62.0469 72.4534C62.419 71.9514 63.7836 71.3238 65.1482 70.8218C65.5204 70.6963 65.7685 70.1943 65.6445 69.8178C65.5204 69.5668 65.1482 69.3158 64.7761 69.4413Z" fill="white"/>
<path d="M73.7079 61.7856C73.7079 61.7856 71.475 61.9112 68.9939 62.0367L64.1558 62.1622C63.9077 62.1622 63.7836 62.2877 63.5355 62.4132C63.4114 62.5387 63.2874 62.7897 63.4114 63.0407L64.0317 66.8059C64.0317 67.1824 64.5279 67.5589 64.9001 67.4334C65.2722 67.4334 65.5204 67.0569 65.5204 66.6804C65.5204 66.6804 65.2722 64.6723 65.0241 63.6682H68.2496V73.5832H66.6368C66.2647 73.5832 65.8925 73.9597 65.8925 74.3363C65.8925 74.7128 66.2647 75.0893 66.6368 75.0893L71.2269 74.9638C71.599 74.9638 71.9712 74.5873 71.9712 74.2107C71.9712 73.8342 71.599 73.4577 71.2269 73.4577H69.7382V63.5427C70.9788 63.5427 72.0952 63.4172 72.8396 63.4172V64.9233C72.8396 65.6763 72.9636 65.9273 72.9636 66.0529C73.2117 66.4294 73.5839 66.5549 73.9561 66.3039C74.2042 66.1784 74.3282 65.8018 74.3282 65.5508C74.3282 65.5508 74.3282 63.7937 74.4523 62.7897C74.4523 62.5387 74.4523 62.4132 74.2042 62.1622C74.2042 61.9112 73.9561 61.7856 73.7079 61.7856ZM42.0741 71.0731C41.7019 71.0731 41.3297 71.4496 41.3297 71.8261V72.9557C41.3297 73.2067 41.2057 73.7087 41.0816 73.9597C40.9576 74.2107 40.8335 74.3363 40.5854 74.5873C40.4614 74.7128 40.2132 74.8383 39.9651 74.9638C39.717 75.0893 39.593 75.0893 39.0968 75.0893H38.6005C36.6157 75.0893 36.3676 73.5832 36.3676 73.2067V69.9435C36.4916 68.6885 36.7397 67.8099 37.2359 67.4334C37.6081 67.1824 38.1043 67.3079 38.9727 67.5589C39.9651 67.9354 40.7095 69.065 40.7095 69.065C40.8335 69.316 41.2057 69.4415 41.5778 69.4415C41.95 69.316 42.0741 69.065 42.0741 68.6885V65.2998C42.0741 64.9233 41.7019 64.5468 41.3297 64.5468C40.9576 64.5468 40.5854 64.9233 40.5854 65.2998V66.6804C40.3373 66.4294 39.9651 66.1784 39.593 66.0529C39.0968 65.8018 37.7322 65.2998 36.4916 65.9273C35.6232 66.5549 35.003 67.6844 34.8789 69.567V73.0812C35.003 74.2107 35.8713 76.4699 38.7246 76.4699H39.0968C39.593 76.4699 40.0892 76.4699 40.5854 76.2188C40.9576 76.0933 41.3297 75.8423 41.7019 75.4658C41.95 75.2148 42.0741 74.9638 42.3222 74.5873C42.5703 74.0852 42.6943 73.2067 42.8184 72.9557V71.7006C42.8184 71.4496 42.4462 71.0731 42.0741 71.0731Z" fill="white"/>
</g>
<defs>
<clipPath id="clip0_1414_12262">
<rect width="37" height="39" fill="white" transform="translate(44 23)"/>
</clipPath>
<clipPath id="clip1_1414_12262">
<rect width="82" height="31" fill="white" transform="translate(19 53)"/>
</clipPath>
</defs>
</svg>
