<svg width="36" height="36" viewBox="0 0 36 36" fill="none" xmlns="http://www.w3.org/2000/svg">
<g clip-path="url(#clip0_1176_1155)">
<path fill-rule="evenodd" clip-rule="evenodd" d="M33.75 18C33.75 26.6979 26.6979 33.75 18 33.75C9.30206 33.75 2.25 26.6979 2.25 18C2.25 9.30206 9.30206 2.25 18 2.25C26.6979 2.25 33.75 9.30206 33.75 18ZM18.5644 13.8774C17.0327 14.514 13.9706 15.8331 9.3795 17.8333C8.634 18.1299 8.24288 18.42 8.20744 18.7035C8.14706 19.1839 8.74819 19.3729 9.56456 19.6288C9.67613 19.6642 9.79163 19.6997 9.90975 19.7391C10.7143 20.0002 11.7958 20.3061 12.3576 20.3179C12.8681 20.3284 13.4377 20.1184 14.0664 19.6879C18.3557 16.7912 20.5699 15.3277 20.709 15.2962C20.8074 15.2739 20.9439 15.2451 21.0358 15.3277C21.1277 15.4091 21.1185 15.564 21.1093 15.606C21.0489 15.8593 18.6943 18.0499 17.4737 19.1839C17.0931 19.5369 16.824 19.7876 16.7689 19.8454C16.6455 19.9727 16.5195 20.0948 16.3987 20.2116C15.6506 20.9308 15.0915 21.4716 16.4303 22.3536C17.0734 22.7775 17.5879 23.1279 18.1011 23.4771C18.6615 23.859 19.2206 24.2396 19.9451 24.7147C20.1289 24.8355 20.3048 24.9602 20.4767 25.0823C21.129 25.5482 21.7157 25.9656 22.4402 25.8999C22.8602 25.8606 23.2959 25.4655 23.5164 24.2856C24.0375 21.4952 25.0639 15.4524 25.3014 12.9613C25.3159 12.7545 25.3071 12.5467 25.2752 12.3418C25.2561 12.1763 25.1755 12.0241 25.0494 11.9152C24.8617 11.7617 24.5704 11.7289 24.4391 11.7315C23.8472 11.742 22.9389 12.0583 18.5644 13.8774Z" fill="#F3F4F6"/>
</g>
<defs>
<clipPath id="clip0_1176_1155">
<rect width="31.5" height="31.5" fill="white" transform="translate(2.25 2.25)"/>
</clipPath>
</defs>
</svg>
