<svg width="36" height="36" viewBox="0 0 36 36" fill="none" xmlns="http://www.w3.org/2000/svg">
<path d="M3.75602 32.25L5.78402 24.798C4.44773 22.5073 3.74566 19.902 3.75002 17.25C3.75002 8.9655 10.4655 2.25 18.75 2.25C27.0345 2.25 33.75 8.9655 33.75 17.25C33.75 25.5345 27.0345 32.25 18.75 32.25C16.0992 32.2543 13.495 31.5527 11.205 30.2175L3.75602 32.25ZM13.3365 10.212C13.1428 10.224 12.9535 10.275 12.78 10.362C12.6173 10.4541 12.4688 10.5693 12.339 10.704C12.159 10.8735 12.057 11.0205 11.9475 11.163C11.3931 11.8845 11.0949 12.7701 11.1 13.68C11.103 14.415 11.295 15.1305 11.595 15.7995C12.2085 17.1525 13.218 18.585 14.5515 19.9125C14.8725 20.232 15.186 20.553 15.5235 20.8515C17.1786 22.3087 19.1509 23.3595 21.2835 23.9205L22.137 24.051C22.4145 24.066 22.692 24.045 22.971 24.0315C23.4079 24.0089 23.8344 23.8906 24.2205 23.685C24.4169 23.5838 24.6086 23.4737 24.795 23.355C24.795 23.355 24.8595 23.313 24.9825 23.22C25.185 23.07 25.3095 22.9635 25.4775 22.788C25.602 22.659 25.71 22.5075 25.7925 22.335C25.9095 22.0905 26.0265 21.624 26.0745 21.2355C26.1105 20.9385 26.1 20.7765 26.0955 20.676C26.0895 20.5155 25.956 20.349 25.8105 20.2785L24.9375 19.887C24.9375 19.887 23.6325 19.3185 22.836 18.9555C22.752 18.9189 22.662 18.898 22.5705 18.894C22.4679 18.8834 22.3642 18.895 22.2664 18.9279C22.1686 18.9607 22.079 19.0141 22.0035 19.0845V19.0815C21.996 19.0815 21.8955 19.167 20.811 20.481C20.7488 20.5646 20.663 20.6278 20.5647 20.6626C20.4664 20.6973 20.36 20.702 20.259 20.676C20.1613 20.6499 20.0655 20.6168 19.9725 20.577C19.7865 20.499 19.722 20.469 19.5945 20.4135L19.587 20.4105C18.7289 20.0358 17.9343 19.5298 17.232 18.9105C17.043 18.7455 16.8675 18.5655 16.6875 18.3915C16.0974 17.8263 15.5831 17.187 15.1575 16.4895L15.069 16.347C15.0054 16.2512 14.9541 16.1479 14.916 16.0395C14.859 15.819 15.0075 15.642 15.0075 15.642C15.0075 15.642 15.372 15.243 15.5415 15.027C15.6826 14.8475 15.8143 14.6607 15.936 14.4675C16.113 14.1825 16.1685 13.89 16.0755 13.6635C15.6555 12.6375 15.2205 11.616 14.7735 10.602C14.685 10.401 14.4225 10.257 14.184 10.2285C14.103 10.2195 14.022 10.2105 13.941 10.2045C13.7396 10.1945 13.5377 10.1965 13.3365 10.2105V10.212Z" fill="#F3F4F6"/>
</svg>
